<svg width="927" height="817" viewBox="0 0 927 817" fill="none" xmlns="http://www.w3.org/2000/svg">
<path d="M253.453 595.473L297.376 730.574C298.626 734.425 300.865 737.881 303.869 740.597C306.873 743.313 310.536 745.193 314.493 746.051C318.451 746.908 322.564 746.713 326.422 745.484C330.281 744.255 333.749 742.037 336.482 739.049L532.316 525.433" stroke="#F8F8F8" stroke-width="23.1537" stroke-linecap="round" stroke-linejoin="round"/>
<path d="M269.353 365.79C269.353 303.576 219.388 255.486 141.151 255.486C62.915 255.486 12 294.152 12 403.484C12 512.816 106.536 534.488 106.536 534.488" stroke="#F8F8F8" stroke-width="23.1537" stroke-linecap="round" stroke-linejoin="round"/>
<path d="M785.005 414.828C785.005 414.828 760.462 544.882 615.311 544.882C470.161 544.882 378.68 365.765 269.349 365.765C140.197 365.765 106.277 474.194 106.277 544.882C106.277 605.221 138.322 629.741 180.74 629.741C223.157 629.741 302.343 558.08 336.286 521.312H523.831" stroke="#0E76D0" stroke-width="23.1537" stroke-linecap="round" stroke-linejoin="round"/>
<path d="M232.582 114.086C263.701 9.43103 419.71 6.14321 481.461 67.8941C543.212 129.645 539.901 217.768 453.26 314.296M672.873 365.789C739.277 446.364 902.511 435.158 914.296 275.374C926.081 115.591 786.187 118.161 758.24 128.858" stroke="#F8F8F8" stroke-width="23.1537" stroke-linecap="round" stroke-linejoin="round"/>
<path d="M103.83 236.531C96.1784 195.718 119.45 114.085 232.579 114.085C404.148 114.085 419.684 392.624 584.191 392.624C720.891 392.624 812.556 215.336 750.111 113.159C667.151 -22.6145 554.054 0.578571 499.211 54.146" stroke="#6CC16D" stroke-width="23.1537" stroke-linecap="square" stroke-linejoin="round"/>
<path d="M695.625 661.189C705.153 661.189 758.504 649.964 765.241 643.227C771.978 636.49 782.354 592.916 782.354 583.388C782.354 592.916 796.128 636.49 802.866 643.227C809.603 649.964 862.105 661.189 871.633 661.189C862.105 661.189 809.603 674.114 802.866 680.851C796.128 687.588 782.354 738.39 782.354 747.917C782.354 738.39 771.978 687.588 765.241 680.851C758.504 674.114 705.153 661.189 695.625 661.189Z" fill="#F8F8F8"/>
<path d="M631.32 779.577C635.354 779.577 657.938 774.825 660.79 771.973C663.642 769.121 668.035 750.675 668.035 746.642C668.035 750.675 673.866 769.121 676.718 771.973C679.57 774.825 701.795 779.577 705.829 779.577C701.795 779.577 679.57 785.049 676.718 787.9C673.866 790.752 668.035 812.258 668.035 816.291C668.035 812.258 663.642 790.752 660.79 787.9C657.938 785.049 635.354 779.577 631.32 779.577Z" fill="#F8F8F8"/>
</svg>
