<svg width="471" height="471" viewBox="0 0 471 471" fill="none" xmlns="http://www.w3.org/2000/svg">
<path d="M84.5055 139.979L82.7024 141.782L84.5055 143.585L107.685 166.765L109.488 168.568L111.291 166.765L166.929 111.127L168.732 109.324L166.929 107.521L143.749 84.3416L141.946 82.5384L140.143 84.3416L84.5055 139.979ZM51.7362 297.957L53.5393 299.76L55.3424 297.957L78.2924 275.007L80.0955 273.204L78.2924 271.4L42.392 235.5L78.2924 199.6L80.0955 197.796L78.2924 195.993L55.3424 173.043L53.5393 171.24L51.7362 173.043L14.0326 210.747C7.01249 217.767 3.45 226.606 3.45 235.5C3.45 244.394 7.01249 253.233 14.0326 260.253L51.7362 297.957ZM84.3416 327.251L82.5384 329.054L84.3416 330.857L139.979 386.495L141.782 388.298L143.585 386.495L166.765 363.315L168.568 361.512L166.765 359.709L111.127 304.071L109.324 302.268L107.521 304.071L84.3416 327.251ZM173.043 415.658L171.24 417.461L173.043 419.264L210.747 456.967C217.767 463.987 226.606 467.55 235.5 467.55C244.394 467.55 253.233 463.987 260.253 456.967L297.957 419.264L299.76 417.461L297.957 415.658L275.007 392.708L273.204 390.904L271.4 392.708L235.5 428.608L199.6 392.708L197.796 390.904L195.993 392.708L173.043 415.658ZM304.071 359.873L302.268 361.676L304.071 363.479L327.251 386.658L329.054 388.462L330.857 386.658L386.495 331.021L388.298 329.218L386.495 327.415L363.315 304.235L361.512 302.432L359.709 304.235L304.071 359.873ZM415.658 297.957L417.461 299.76L419.264 297.957L456.967 260.253C463.987 253.233 467.55 244.394 467.55 235.5C467.55 226.606 463.987 217.767 456.967 210.747L419.264 173.043L417.461 171.24L415.658 173.043L392.708 195.993L390.904 197.796L392.708 199.6L428.608 235.5L392.708 271.4L390.904 273.204L392.708 275.007L415.658 297.957ZM304.235 107.685L302.432 109.488L304.235 111.291L359.873 166.929L361.676 168.732L363.479 166.929L386.658 143.749L388.462 141.946L386.658 140.143L331.021 84.5055L329.218 82.7024L327.415 84.5055L304.235 107.685ZM173.043 51.7362L171.24 53.5393L173.043 55.3424L195.993 78.2924L197.796 80.0955L199.6 78.2924L235.5 42.392L271.4 78.2924L273.204 80.0955L275.007 78.2924L297.957 55.3424L299.76 53.5393L297.957 51.7362L260.253 14.0326C253.233 7.01249 244.394 3.45 235.5 3.45C226.606 3.45 217.767 7.01249 210.747 14.0326L173.043 51.7362Z" fill="#F8F8F8" stroke="white" stroke-width="5.1"/>
</svg>
