<svg width="501" height="455" viewBox="0 0 501 455" fill="none" xmlns="http://www.w3.org/2000/svg">
<path d="M418.836 296.611C427.603 275.318 432.363 252.523 432.363 227.473C432.363 209.437 429.607 192.152 424.848 176.12C408.565 179.878 391.532 181.882 373.746 181.882C337.323 181.921 301.424 173.203 269.075 156.462C236.727 139.721 208.878 115.448 187.875 85.69C165.408 140.053 123.024 183.781 69.3885 207.934C68.3865 214.196 68.3865 220.96 68.3865 227.473C68.3865 251.388 73.097 275.07 82.2491 297.165C91.4011 319.26 104.816 339.336 121.726 356.247C155.879 390.4 202.201 409.587 250.5 409.587C270.978 409.587 290.848 406.094 309.402 399.701C318.255 396.65 328.307 400.038 332.56 408.38C334.512 412.209 336.21 415.583 337.671 418.525C341.996 427.228 337.753 436.913 328.462 439.767C295.385 449.927 269.239 454.927 250.5 454.927C189.879 454.927 132.014 431.129 89.4285 388.294C63.5267 362.472 44.2726 330.754 33.3165 295.859H0V199.564C0 189.799 7.91666 181.882 17.6824 181.882H27.3045C35.577 141.614 54.5963 104.337 82.3441 74.0064C110.092 43.6754 145.533 21.4219 184.907 9.60706C224.281 -2.20774 266.12 -3.14305 305.982 6.90037C345.845 16.9438 382.245 37.5913 411.321 66.652C442.89 98.0961 464.422 138.197 473.195 181.882H483.318C493.083 181.882 501 189.799 501 199.564V295.859C500.033 295.859 499.102 296.222 498.39 296.876L416.257 372.318C412.485 375.783 407.396 377.442 402.307 376.866L293.247 364.52C284.308 363.508 277.554 355.945 277.554 346.949V338.592C277.554 328.826 285.471 320.909 295.236 320.909H390.274C395.516 320.909 400.487 318.584 403.847 314.561L418.836 296.611ZM182.114 221.711C189.629 221.711 196.893 224.717 202.154 230.228C207.44 235.558 210.407 242.761 210.407 250.268C210.407 257.776 207.44 264.979 202.154 270.308C196.893 275.569 189.629 278.575 182.114 278.575C166.332 278.575 153.557 266.05 153.557 250.268C153.557 234.487 166.332 221.711 182.114 221.711ZM318.636 221.711C334.418 221.711 346.943 234.487 346.943 250.268C346.943 266.05 334.418 278.575 318.636 278.575C302.855 278.575 290.079 266.05 290.079 250.268C290.079 242.695 293.088 235.431 298.443 230.076C303.799 224.72 311.062 221.711 318.636 221.711Z" fill="#F8F8F8"/>
</svg>
