<svg width="511" height="511" viewBox="0 0 511 511" fill="none" xmlns="http://www.w3.org/2000/svg">
<path d="M460.849 255.5V255.499C460.843 229.869 456.007 204.527 446.653 180.784C442.191 169.458 428.969 165.324 418.424 170.596L280.853 239.382C270.619 244.499 258.578 237.057 258.578 225.615V71.6724C258.578 59.8553 248.925 49.8672 236.775 50.9797C216.228 52.8612 196.045 57.8322 176.916 65.7555C152.002 76.0753 129.365 91.2012 110.296 110.27C91.2278 129.338 76.1019 151.976 65.7821 176.89C55.4624 201.804 50.1508 228.507 50.1508 255.473C50.1508 282.44 55.4624 309.143 65.7821 334.057C76.1019 358.971 91.2278 381.609 110.296 400.677C129.365 419.746 152.002 434.871 176.916 445.191C201.83 455.511 228.533 460.823 255.5 460.823C309.957 460.823 362.185 439.191 400.694 400.687C439.204 362.182 460.842 309.958 460.849 255.5ZM77.0109 77.0109C124.349 29.6727 188.554 3.07831 255.5 3.07831C394.884 3.07831 507.922 116.09 507.922 255.473C507.923 288.622 501.396 321.446 488.712 352.072C476.028 382.698 457.437 410.526 433.998 433.967C410.56 457.407 382.734 476.002 352.11 488.689C321.485 501.376 288.662 507.907 255.513 507.908C222.365 507.91 189.54 501.383 158.915 488.699C128.289 476.015 100.461 457.423 77.0202 433.985C53.5795 410.547 34.9848 382.721 22.2978 352.096C9.61083 321.472 3.08004 288.648 3.07831 255.5C3.07831 188.554 29.6727 124.349 77.0109 77.0109Z" fill="white" stroke="white" stroke-width="6.15663"/>
</svg>
